<svg xmlns="http://www.w3.org/2000/svg" version="1.1" xmlns:xlink="http://www.w3.org/1999/xlink" xmlns:svgjs="http://svgjs.com/svgjs" width="20" height="28"><svg width="20" height="28" viewBox="0 0 20 28" fill="none" xmlns="http://www.w3.org/2000/svg">
<path d="M10.1225 27.216C8.49047 27.216 7.01447 26.856 5.69447 26.136C4.39847 25.392 3.36647 24.3 2.59847 22.86C1.85447 21.42 1.48247 19.62 1.48247 17.46C1.48247 15.3 1.86647 13.5 2.63447 12.06C3.42647 10.62 4.47047 9.54 5.76647 8.82C7.08647 8.1 8.53847 7.74 10.1225 7.74C11.9945 7.74 13.6505 8.148 15.0905 8.964C16.5305 9.78 17.6705 10.92 18.5105 12.384C19.3505 13.824 19.7705 15.516 19.7705 17.46C19.7705 19.404 19.3505 21.108 18.5105 22.572C17.6705 24.036 16.5305 25.176 15.0905 25.992C13.6505 26.808 11.9945 27.216 10.1225 27.216ZM0.00646895 27V0.287998H3.46247V12.996L3.10247 17.424L3.31847 21.852V27H0.00646895ZM9.83447 24.192C11.0585 24.192 12.1505 23.916 13.1105 23.364C14.0945 22.812 14.8625 22.032 15.4145 21.024C15.9905 19.992 16.2785 18.804 16.2785 17.46C16.2785 16.092 15.9905 14.916 15.4145 13.932C14.8625 12.924 14.0945 12.144 13.1105 11.592C12.1505 11.04 11.0585 10.764 9.83447 10.764C8.63447 10.764 7.54247 11.04 6.55847 11.592C5.59847 12.144 4.83047 12.924 4.25447 13.932C3.70247 14.916 3.42647 16.092 3.42647 17.46C3.42647 18.804 3.70247 19.992 4.25447 21.024C4.83047 22.032 5.59847 22.812 6.55847 23.364C7.54247 23.916 8.63447 24.192 9.83447 24.192Z" fill="white"></path>
</svg><style>@media (prefers-color-scheme: light) { :root { filter: contrast(1) brightness(0.1); } }
@media (prefers-color-scheme: dark) { :root { filter: contrast(0.3846153846153846) brightness(4.5); } }
</style></svg>