<svg width="187" height="147" viewBox="0 0 187 147" fill="none" xmlns="http://www.w3.org/2000/svg">
<path d="M26.3647 6.51388C20.122 4.2403 13.3824 3 6.35294 3V119.832C13.3824 119.832 20.122 118.591 26.3647 116.318M63.8471 6.51388C57.6044 4.2403 50.8648 3 43.8353 3V119.832C50.8648 119.832 57.6044 118.591 63.8471 116.318M139.765 61.4158C139.765 93.678 113.597 119.832 81.3176 119.832V3C113.597 3 139.765 29.1537 139.765 61.4158Z" stroke="url(#paint0_linear_463_4628)" stroke-width="4.627"/>
<g clip-path="url(#clip0_463_4628)">
<mask id="path-2-outside-1_463_4628" maskUnits="userSpaceOnUse" x="54.5294" y="44.824" width="132" height="109" fill="black">
<rect fill="white" x="54.5294" y="44.824" width="132" height="109"/>
<path d="M80.6824 93.6867C80.6824 90.6849 83.2374 87.9691 86.4 87.9691H92.1177C95.2802 87.9691 97.8353 90.6849 97.8353 93.6867V99.4044C97.8353 102.728 95.2802 105.122 92.1177 105.122H86.4C83.2374 105.122 80.6824 102.728 80.6824 99.4044V93.6867ZM92.1177 93.6867H86.4V99.4044H92.1177V93.6867ZM155.012 87.9691C158.174 87.9691 160.729 90.6849 160.729 93.6867V99.4044C160.729 102.728 158.174 105.122 155.012 105.122H149.294C146.132 105.122 143.576 102.728 143.576 99.4044V93.6867C143.576 90.6849 146.132 87.9691 149.294 87.9691H155.012ZM149.294 99.4044H155.012V93.6867H149.294V99.4044ZM80.6824 116.718C80.6824 113.556 83.2374 110.84 86.4 110.84H92.1177C95.2802 110.84 97.8353 113.556 97.8353 116.718V128.153C97.8353 131.316 95.2802 133.871 92.1177 133.871H86.4C83.2374 133.871 80.6824 131.316 80.6824 128.153V116.718ZM92.1177 116.718H86.4V128.153H92.1177V116.718ZM155.012 110.84C158.174 110.84 160.729 113.556 160.729 116.718V128.153C160.729 131.316 158.174 133.871 155.012 133.871H149.294C146.132 133.871 143.576 131.316 143.576 128.153V116.718C143.576 113.556 146.132 110.84 149.294 110.84H155.012ZM149.294 128.153H155.012V116.718H149.294V128.153ZM123.565 85.1102H124.994C126.566 85.1102 127.853 86.5575 127.853 87.9691C127.853 89.7022 126.566 90.8279 124.994 90.8279H120.706C119.134 90.8279 117.847 89.7022 117.847 87.9691V82.2514C117.847 80.8399 119.134 79.3926 120.706 79.3926C122.278 79.3926 123.565 80.8399 123.565 82.2514V85.1102ZM103.553 87.9691C103.553 78.4992 111.075 70.8161 120.706 70.8161C130.176 70.8161 137.859 78.4992 137.859 87.9691C137.859 97.5997 130.176 105.122 120.706 105.122C111.075 105.122 103.553 97.5997 103.553 87.9691ZM120.706 99.4044C127.013 99.4044 132.141 94.4372 132.141 87.9691C132.141 81.8226 127.013 76.5338 120.706 76.5338C114.399 76.5338 109.271 81.8226 109.271 87.9691C109.271 94.4372 114.399 99.4044 120.706 99.4044ZM147.65 74.0323L168.698 78.2312C174.041 79.3033 177.882 83.9846 177.882 89.4521V133.871C177.882 140.178 172.754 145.306 166.447 145.306H74.9647C68.6485 145.306 63.5294 140.178 63.5294 133.871V89.4521C63.5294 83.9846 67.3763 79.3033 72.7223 78.2312L93.7615 74.0323L118.955 54.4261C119.83 53.6233 121.421 53.6233 122.457 54.4261L147.65 74.0323ZM132.141 122.436V139.589H166.447C169.61 139.589 172.165 137.034 172.165 133.871V89.4521C172.165 86.7183 170.235 84.2169 167.573 83.6808L145.881 79.4998C145.435 79.4105 145.024 79.2318 144.684 78.9459L120.706 60.3046L96.7275 78.9459C96.388 79.2318 95.9771 79.4105 95.5304 79.4998L73.8426 83.6808C71.1714 84.2169 69.2471 86.7183 69.2471 89.4521V133.871C69.2471 137.034 71.8075 139.589 74.9647 139.589H109.271V122.436C109.271 116.128 114.399 110.84 120.706 110.84C127.013 110.84 132.141 116.128 132.141 122.436ZM126.424 139.589V122.436C126.424 119.273 123.868 116.718 120.706 116.718C117.543 116.718 114.988 119.273 114.988 122.436V139.589H126.424Z"/>
</mask>
<path d="M80.6824 93.6867C80.6824 90.6849 83.2374 87.9691 86.4 87.9691H92.1177C95.2802 87.9691 97.8353 90.6849 97.8353 93.6867V99.4044C97.8353 102.728 95.2802 105.122 92.1177 105.122H86.4C83.2374 105.122 80.6824 102.728 80.6824 99.4044V93.6867ZM92.1177 93.6867H86.4V99.4044H92.1177V93.6867ZM155.012 87.9691C158.174 87.9691 160.729 90.6849 160.729 93.6867V99.4044C160.729 102.728 158.174 105.122 155.012 105.122H149.294C146.132 105.122 143.576 102.728 143.576 99.4044V93.6867C143.576 90.6849 146.132 87.9691 149.294 87.9691H155.012ZM149.294 99.4044H155.012V93.6867H149.294V99.4044ZM80.6824 116.718C80.6824 113.556 83.2374 110.84 86.4 110.84H92.1177C95.2802 110.84 97.8353 113.556 97.8353 116.718V128.153C97.8353 131.316 95.2802 133.871 92.1177 133.871H86.4C83.2374 133.871 80.6824 131.316 80.6824 128.153V116.718ZM92.1177 116.718H86.4V128.153H92.1177V116.718ZM155.012 110.84C158.174 110.84 160.729 113.556 160.729 116.718V128.153C160.729 131.316 158.174 133.871 155.012 133.871H149.294C146.132 133.871 143.576 131.316 143.576 128.153V116.718C143.576 113.556 146.132 110.84 149.294 110.84H155.012ZM149.294 128.153H155.012V116.718H149.294V128.153ZM123.565 85.1102H124.994C126.566 85.1102 127.853 86.5575 127.853 87.9691C127.853 89.7022 126.566 90.8279 124.994 90.8279H120.706C119.134 90.8279 117.847 89.7022 117.847 87.9691V82.2514C117.847 80.8399 119.134 79.3926 120.706 79.3926C122.278 79.3926 123.565 80.8399 123.565 82.2514V85.1102ZM103.553 87.9691C103.553 78.4992 111.075 70.8161 120.706 70.8161C130.176 70.8161 137.859 78.4992 137.859 87.9691C137.859 97.5997 130.176 105.122 120.706 105.122C111.075 105.122 103.553 97.5997 103.553 87.9691ZM120.706 99.4044C127.013 99.4044 132.141 94.4372 132.141 87.9691C132.141 81.8226 127.013 76.5338 120.706 76.5338C114.399 76.5338 109.271 81.8226 109.271 87.9691C109.271 94.4372 114.399 99.4044 120.706 99.4044ZM147.65 74.0323L168.698 78.2312C174.041 79.3033 177.882 83.9846 177.882 89.4521V133.871C177.882 140.178 172.754 145.306 166.447 145.306H74.9647C68.6485 145.306 63.5294 140.178 63.5294 133.871V89.4521C63.5294 83.9846 67.3763 79.3033 72.7223 78.2312L93.7615 74.0323L118.955 54.4261C119.83 53.6233 121.421 53.6233 122.457 54.4261L147.65 74.0323ZM132.141 122.436V139.589H166.447C169.61 139.589 172.165 137.034 172.165 133.871V89.4521C172.165 86.7183 170.235 84.2169 167.573 83.6808L145.881 79.4998C145.435 79.4105 145.024 79.2318 144.684 78.9459L120.706 60.3046L96.7275 78.9459C96.388 79.2318 95.9771 79.4105 95.5304 79.4998L73.8426 83.6808C71.1714 84.2169 69.2471 86.7183 69.2471 89.4521V133.871C69.2471 137.034 71.8075 139.589 74.9647 139.589H109.271V122.436C109.271 116.128 114.399 110.84 120.706 110.84C127.013 110.84 132.141 116.128 132.141 122.436ZM126.424 139.589V122.436C126.424 119.273 123.868 116.718 120.706 116.718C117.543 116.718 114.988 119.273 114.988 122.436V139.589H126.424Z" fill="#5296B4"/>
<path d="M80.6824 93.6867C80.6824 90.6849 83.2374 87.9691 86.4 87.9691H92.1177C95.2802 87.9691 97.8353 90.6849 97.8353 93.6867V99.4044C97.8353 102.728 95.2802 105.122 92.1177 105.122H86.4C83.2374 105.122 80.6824 102.728 80.6824 99.4044V93.6867ZM92.1177 93.6867H86.4V99.4044H92.1177V93.6867ZM155.012 87.9691C158.174 87.9691 160.729 90.6849 160.729 93.6867V99.4044C160.729 102.728 158.174 105.122 155.012 105.122H149.294C146.132 105.122 143.576 102.728 143.576 99.4044V93.6867C143.576 90.6849 146.132 87.9691 149.294 87.9691H155.012ZM149.294 99.4044H155.012V93.6867H149.294V99.4044ZM80.6824 116.718C80.6824 113.556 83.2374 110.84 86.4 110.84H92.1177C95.2802 110.84 97.8353 113.556 97.8353 116.718V128.153C97.8353 131.316 95.2802 133.871 92.1177 133.871H86.4C83.2374 133.871 80.6824 131.316 80.6824 128.153V116.718ZM92.1177 116.718H86.4V128.153H92.1177V116.718ZM155.012 110.84C158.174 110.84 160.729 113.556 160.729 116.718V128.153C160.729 131.316 158.174 133.871 155.012 133.871H149.294C146.132 133.871 143.576 131.316 143.576 128.153V116.718C143.576 113.556 146.132 110.84 149.294 110.84H155.012ZM149.294 128.153H155.012V116.718H149.294V128.153ZM123.565 85.1102H124.994C126.566 85.1102 127.853 86.5575 127.853 87.9691C127.853 89.7022 126.566 90.8279 124.994 90.8279H120.706C119.134 90.8279 117.847 89.7022 117.847 87.9691V82.2514C117.847 80.8399 119.134 79.3926 120.706 79.3926C122.278 79.3926 123.565 80.8399 123.565 82.2514V85.1102ZM103.553 87.9691C103.553 78.4992 111.075 70.8161 120.706 70.8161C130.176 70.8161 137.859 78.4992 137.859 87.9691C137.859 97.5997 130.176 105.122 120.706 105.122C111.075 105.122 103.553 97.5997 103.553 87.9691ZM120.706 99.4044C127.013 99.4044 132.141 94.4372 132.141 87.9691C132.141 81.8226 127.013 76.5338 120.706 76.5338C114.399 76.5338 109.271 81.8226 109.271 87.9691C109.271 94.4372 114.399 99.4044 120.706 99.4044ZM147.65 74.0323L168.698 78.2312C174.041 79.3033 177.882 83.9846 177.882 89.4521V133.871C177.882 140.178 172.754 145.306 166.447 145.306H74.9647C68.6485 145.306 63.5294 140.178 63.5294 133.871V89.4521C63.5294 83.9846 67.3763 79.3033 72.7223 78.2312L93.7615 74.0323L118.955 54.4261C119.83 53.6233 121.421 53.6233 122.457 54.4261L147.65 74.0323ZM132.141 122.436V139.589H166.447C169.61 139.589 172.165 137.034 172.165 133.871V89.4521C172.165 86.7183 170.235 84.2169 167.573 83.6808L145.881 79.4998C145.435 79.4105 145.024 79.2318 144.684 78.9459L120.706 60.3046L96.7275 78.9459C96.388 79.2318 95.9771 79.4105 95.5304 79.4998L73.8426 83.6808C71.1714 84.2169 69.2471 86.7183 69.2471 89.4521V133.871C69.2471 137.034 71.8075 139.589 74.9647 139.589H109.271V122.436C109.271 116.128 114.399 110.84 120.706 110.84C127.013 110.84 132.141 116.128 132.141 122.436ZM126.424 139.589V122.436C126.424 119.273 123.868 116.718 120.706 116.718C117.543 116.718 114.988 119.273 114.988 122.436V139.589H126.424Z" stroke="#F6F8FD" stroke-width="16.9412" mask="url(#path-2-outside-1_463_4628)"/>
</g>
<path d="M8.87282 138.04C8.87282 138.166 8.84869 138.284 8.80044 138.395C8.75218 138.506 8.68222 138.607 8.59053 138.699C8.44095 138.849 8.23346 138.967 7.96806 139.054C7.70267 139.136 7.39143 139.177 7.03435 139.177C6.80756 139.177 6.57836 139.153 6.34674 139.104C6.11512 139.056 5.90522 138.974 5.71703 138.858C5.52401 138.742 5.36236 138.59 5.23208 138.402C5.10662 138.214 5.03424 137.982 5.01494 137.707H3.6759C3.6759 138.04 3.75069 138.361 3.90028 138.67C4.05469 138.979 4.27666 139.249 4.56618 139.481C4.85087 139.717 5.20071 139.908 5.6157 140.053C6.03068 140.192 6.50356 140.262 7.03435 140.262C7.49759 140.262 7.92463 140.207 8.31549 140.096C8.70634 139.985 9.04171 139.828 9.32158 139.625C9.60145 139.423 9.81859 139.179 9.973 138.894C10.1322 138.61 10.2119 138.294 10.2119 137.946C10.2119 137.623 10.1419 137.338 10.002 137.092C9.86684 136.846 9.669 136.629 9.40843 136.441C9.14786 136.257 8.82698 136.101 8.44577 135.97C8.06457 135.835 7.6327 135.717 7.15016 135.616C6.78343 135.543 6.47944 135.468 6.23817 135.391C6.00172 135.314 5.81354 135.227 5.6736 135.131C5.52884 135.034 5.42751 134.926 5.3696 134.805C5.3117 134.684 5.28275 134.547 5.28275 134.392C5.28275 134.243 5.31894 134.098 5.39132 133.958C5.4637 133.818 5.57227 133.695 5.71703 133.589C5.85696 133.483 6.03309 133.398 6.24541 133.336C6.46255 133.273 6.71347 133.241 6.99816 133.241C7.27321 133.241 7.5193 133.28 7.73644 133.357C7.95841 133.435 8.1466 133.536 8.30101 133.661C8.45542 133.787 8.57606 133.932 8.66291 134.096C8.74977 134.255 8.7932 134.419 8.7932 134.588H10.1322C10.1322 134.245 10.0574 133.927 9.90786 133.632C9.7631 133.333 9.55561 133.073 9.28539 132.851C9.01517 132.629 8.68704 132.455 8.30101 132.33C7.91498 132.204 7.4807 132.141 6.99816 132.141C6.5494 132.141 6.13684 132.202 5.76046 132.322C5.3889 132.443 5.06802 132.607 4.7978 132.814C4.52758 133.022 4.31767 133.266 4.16809 133.545C4.0185 133.821 3.94371 134.117 3.94371 134.436C3.94371 134.759 4.01609 135.044 4.16085 135.29C4.30561 135.531 4.51069 135.741 4.77608 135.92C5.03665 136.103 5.3503 136.26 5.71703 136.39C6.08858 136.52 6.49874 136.631 6.9475 136.723C7.31422 136.795 7.62064 136.877 7.86673 136.969C8.11282 137.056 8.31066 137.152 8.46025 137.259C8.60984 137.365 8.71599 137.483 8.77872 137.613C8.84145 137.739 8.87282 137.881 8.87282 138.04ZM16.967 139.177C16.5472 139.177 16.195 139.095 15.9103 138.931C15.6304 138.762 15.406 138.542 15.2371 138.272C15.0634 138.007 14.938 137.707 14.8608 137.374C14.7884 137.037 14.7522 136.696 14.7522 136.354V136.05C14.7522 135.712 14.7884 135.377 14.8608 135.044C14.938 134.711 15.0634 134.409 15.2371 134.139C15.4108 133.874 15.6376 133.659 15.9175 133.495C16.2022 133.326 16.552 133.241 16.967 133.241C17.2372 133.241 17.4882 133.287 17.7198 133.379C17.9562 133.471 18.1589 133.596 18.3278 133.755C18.4967 133.915 18.6294 134.1 18.7259 134.313C18.8272 134.52 18.8803 134.742 18.8851 134.979H20.1518C20.1518 134.583 20.0722 134.211 19.9129 133.864C19.7537 133.517 19.5341 133.215 19.2543 132.959C18.9696 132.708 18.6318 132.51 18.2409 132.366C17.8549 132.216 17.4303 132.141 16.967 132.141C16.3735 132.141 15.8548 132.247 15.4108 132.46C14.9669 132.672 14.5978 132.957 14.3034 133.314C14.0043 133.676 13.7799 134.093 13.6303 134.566C13.4807 135.039 13.4059 135.534 13.4059 136.05V136.354C13.4059 136.875 13.4807 137.372 13.6303 137.845C13.7799 138.313 14.0043 138.726 14.3034 139.083C14.5978 139.445 14.9669 139.732 15.4108 139.944C15.8548 140.156 16.3735 140.262 16.967 140.262C17.382 140.262 17.7801 140.192 18.1613 140.053C18.5425 139.908 18.8803 139.715 19.1746 139.473C19.469 139.237 19.703 138.962 19.8767 138.648C20.0553 138.33 20.1469 137.997 20.1518 137.649H18.8851C18.8803 137.867 18.8224 138.069 18.7114 138.257C18.6052 138.441 18.4629 138.6 18.2844 138.735C18.1058 138.875 17.9007 138.984 17.6691 139.061C17.4423 139.138 17.2083 139.177 16.967 139.177ZM24.931 133.451V129H23.5919V140.118H24.931V134.429C25.0275 134.274 25.136 134.134 25.2567 134.009C25.3821 133.878 25.5172 133.765 25.662 133.669C25.8454 133.543 26.0456 133.447 26.2628 133.379C26.4799 133.311 26.7091 133.278 26.9504 133.278C27.2447 133.273 27.5053 133.314 27.7321 133.401C27.9589 133.483 28.1471 133.608 28.2966 133.777C28.4366 133.932 28.5427 134.127 28.6151 134.363C28.6875 134.595 28.7237 134.865 28.7237 135.174V140.118H30.0627V135.189C30.0627 134.663 29.9976 134.209 29.8673 133.828C29.7418 133.442 29.5609 133.123 29.3244 132.872C29.088 132.621 28.8009 132.438 28.4631 132.322C28.1302 132.202 27.7586 132.141 27.3485 132.141C27.0348 132.146 26.7381 132.192 26.4582 132.279C26.1831 132.366 25.9298 132.494 25.6982 132.662C25.5534 132.764 25.4159 132.882 25.2856 133.017C25.1553 133.147 25.0371 133.292 24.931 133.451ZM33.1772 136.129V136.289C33.1772 136.853 33.2592 137.377 33.4233 137.859C33.5873 138.342 33.8238 138.762 34.1326 139.119C34.4366 139.476 34.8081 139.756 35.2472 139.958C35.6912 140.161 36.1906 140.262 36.7455 140.262C37.2956 140.262 37.7902 140.161 38.2293 139.958C38.6684 139.756 39.0424 139.476 39.3512 139.119C39.6552 138.762 39.8892 138.342 40.0533 137.859C40.2174 137.377 40.2994 136.853 40.2994 136.289V136.129C40.2994 135.565 40.2174 135.041 40.0533 134.559C39.8892 134.071 39.6552 133.649 39.3512 133.292C39.0424 132.935 38.666 132.655 38.2221 132.453C37.783 132.245 37.286 132.141 36.731 132.141C36.181 132.141 35.6864 132.245 35.2472 132.453C34.8081 132.655 34.4366 132.935 34.1326 133.292C33.8238 133.649 33.5873 134.071 33.4233 134.559C33.2592 135.041 33.1772 135.565 33.1772 136.129ZM34.5162 136.289V136.129C34.5162 135.748 34.562 135.384 34.6537 135.037C34.7454 134.684 34.8853 134.375 35.0735 134.11C35.2569 133.845 35.4861 133.635 35.7611 133.48C36.0362 133.321 36.3595 133.241 36.731 133.241C37.1026 133.241 37.4259 133.321 37.7009 133.48C37.9808 133.635 38.2148 133.845 38.403 134.11C38.5864 134.375 38.7239 134.684 38.8156 135.037C38.9121 135.384 38.9604 135.748 38.9604 136.129V136.289C38.9604 136.675 38.9145 137.044 38.8228 137.396C38.7312 137.744 38.5936 138.05 38.4103 138.315C38.2221 138.581 37.9881 138.791 37.7082 138.945C37.4331 139.099 37.1122 139.177 36.7455 139.177C36.374 139.177 36.0483 139.099 35.7684 138.945C35.4885 138.791 35.2569 138.581 35.0735 138.315C34.8853 138.05 34.7454 137.744 34.6537 137.396C34.562 137.044 34.5162 136.675 34.5162 136.289ZM43.1388 136.129V136.289C43.1388 136.853 43.2208 137.377 43.3849 137.859C43.5489 138.342 43.7854 138.762 44.0942 139.119C44.3982 139.476 44.7698 139.756 45.2089 139.958C45.6528 140.161 46.1522 140.262 46.7071 140.262C47.2572 140.262 47.7518 140.161 48.1909 139.958C48.6301 139.756 49.004 139.476 49.3128 139.119C49.6168 138.762 49.8509 138.342 50.0149 137.859C50.179 137.377 50.261 136.853 50.261 136.289V136.129C50.261 135.565 50.179 135.041 50.0149 134.559C49.8509 134.071 49.6168 133.649 49.3128 133.292C49.004 132.935 48.6276 132.655 48.1837 132.453C47.7446 132.245 47.2476 132.141 46.6927 132.141C46.1426 132.141 45.648 132.245 45.2089 132.453C44.7698 132.655 44.3982 132.935 44.0942 133.292C43.7854 133.649 43.5489 134.071 43.3849 134.559C43.2208 135.041 43.1388 135.565 43.1388 136.129ZM44.4778 136.289V136.129C44.4778 135.748 44.5237 135.384 44.6153 135.037C44.707 134.684 44.847 134.375 45.0352 134.11C45.2185 133.845 45.4477 133.635 45.7228 133.48C45.9978 133.321 46.3211 133.241 46.6927 133.241C47.0642 133.241 47.3875 133.321 47.6626 133.48C47.9424 133.635 48.1765 133.845 48.3647 134.11C48.548 134.375 48.6855 134.684 48.7772 135.037C48.8737 135.384 48.922 135.748 48.922 136.129V136.289C48.922 136.675 48.8761 137.044 48.7845 137.396C48.6928 137.744 48.5553 138.05 48.3719 138.315C48.1837 138.581 47.9497 138.791 47.6698 138.945C47.3948 139.099 47.0739 139.177 46.7071 139.177C46.3356 139.177 46.0099 139.099 45.73 138.945C45.4501 138.791 45.2185 138.581 45.0352 138.315C44.847 138.05 44.707 137.744 44.6153 137.396C44.5237 137.044 44.4778 136.675 44.4778 136.289ZM53.6867 129V130.165H56.3503V138.96H53.6867V140.118H60.2444V138.96H57.6893V129H53.6867Z" fill="black"/>
<defs>
<linearGradient id="paint0_linear_463_4628" x1="73.0587" y1="3" x2="72.9968" y2="119.832" gradientUnits="userSpaceOnUse">
<stop stop-color="#FFC700"/>
<stop offset="1" stop-color="#FF0099"/>
</linearGradient>
<clipPath id="clip0_463_4628">
<rect width="135.529" height="99.5294" fill="white" transform="translate(50.8235 45.3529)"/>
</clipPath>
</defs>
</svg>
