<svg width="34" height="34" viewBox="0 0 34 34" fill="none" xmlns="http://www.w3.org/2000/svg">
<path d="M17.8566 0.332547C26.9298 0.937517 33.7947 8.78321 33.1898 17.8564C32.5848 26.9297 24.7391 33.7946 15.6659 33.1897C6.59267 32.5847 -0.272234 24.739 0.332665 15.6658C0.937635 6.59255 8.78333 -0.27235 17.8566 0.332547ZM24.4961 10.6762C23.8695 10.6455 22.8873 10.9112 18.1396 12.5007C16.4767 13.0574 13.1503 14.2173 8.16018 15.9805C7.3518 16.2373 6.91898 16.5123 6.8617 16.8056C6.7517 17.3688 7.56817 17.6008 8.58798 18.0047C9.41942 18.3341 10.5411 18.7292 11.1343 18.7815C11.6725 18.829 12.2887 18.6497 12.9828 18.2437C17.7166 15.5254 20.1581 14.1546 20.3072 14.1315C20.4123 14.1152 20.5579 14.0956 20.6495 14.1874C20.7411 14.2793 20.7207 14.4404 20.7076 14.4831C20.602 14.8244 16.0894 18.3639 15.8277 18.5989L15.7023 18.7092C14.74 19.5407 13.7886 20.0621 15.2948 21.1914C16.6547 22.2111 17.4428 22.8562 18.8442 23.9017C19.7397 24.5698 20.4256 25.337 21.3978 25.3136C21.8451 25.3029 22.3319 24.9208 22.6473 23.7052C23.3925 20.8324 24.8964 14.6007 25.3201 12.0197C25.3572 11.7935 25.349 11.5004 25.3353 11.3711C25.3217 11.2418 25.2875 11.0565 25.1282 10.9104C24.9395 10.7374 24.6339 10.6832 24.4961 10.6762Z" fill="#2EA7F6"/>
</svg>
